<?xml version="1.0" encoding="utf-8"?>
<!-- Generator: Adobe Illustrator 19.0.0, SVG Export Plug-In . SVG Version: 6.00 Build 0)  -->
<svg version="1.1" id="Layer_1" xmlns="http://www.w3.org/2000/svg" xmlns:xlink="http://www.w3.org/1999/xlink" x="0px" y="0px"
	 viewBox="-159.2 -522.3 1029.1 1146.1" style="enable-background:new -159.2 -522.3 1029.1 1146.1;" xml:space="preserve">
<style type="text/css">
	.st0{fill:#FFFFFF;}
	.st1{fill:#4C4C4C;}
</style>
<path d="M1670.8-116.5c1,0,2,0,3,0c6.1,12.1,14.8,22,25.2,30.6c16.9,13.9,36.2,20.5,58,16.6c28.4-5,47.1-23.1,60.8-47.2c1,0,2,0,3,0
	c1.5,0.6,2.9,1.5,4.5,1.8c14.7,3.7,29.4,7.3,44.1,11.1c16.6,4.3,33.5,7.5,49.6,13.3c23.3,8.3,43,22.3,56.8,43.5
	c23.7,36.4,47.3,72.8,70.9,109.2c3.5,5.4,7.1,10.6,10.9,16.3c-30.3,18.5-60.1,36.6-90.3,55.1c-17.5-26-34.6-51.6-51.8-77.1
	c-0.4,0.1-0.9,0.2-1.3,0.3c0,2.4,0,4.9,0,7.3c0,146.4,0,292.9,0,439.3c0,2-0.3,4-0.4,5.9c-112,0-224,0-336,0
	c-0.1-2.3-0.4-4.6-0.4-6.9c0-146.5,0-292.9,0-439.4c0-2.1,0-4.2,0-6.3c-0.4-0.1-0.8-0.2-1.2-0.3c-17.2,25.6-34.4,51.2-51.9,77.2
	c-30.3-18.6-60.2-36.8-90.3-55.1c1.9-3,3.5-5.5,5.1-8c24.9-38,50.1-75.7,74.5-114.1c15.8-24.9,38.1-40.9,65.6-49.1
	c27.1-8.1,54.8-13.9,82.3-20.8C1664.7-114.2,1667.7-115.4,1670.8-116.5z"/>
<g>
	<path d="M-1332.6-257.1c-10,23.8-20,47.6-30,71.4c-29.5,70.2-59.1,140.4-88.6,210.7c-3.6,8.6-10.1,10.3-19.2,7.5
		c-3.8,10.8-7.5,21.2-11.2,31.6c-4.6,12.7-6.8,13.9-19.7,10.9c-14.1-3.4-28.1-6.6-42.2-10.1c-10.5-2.6-12.5-6-10.9-16.8
		c1.6-10.4,3.2-20.8,4.8-31c-14.1-6.6-14.8-8.4-11.1-23.4c31-125.5,61.3-251.2,93.1-376.5c14.5-57.1,53-91.2,110.5-103.5
		c38.9-8.3,77.9-15.9,117.7-24c0-9.9-0.1-19.6,0-29.3c0.2-10.4,5.1-14.2,15.5-15.4c13.3-1.5,22.6,3.3,30.8,13.5
		c13.4,16.7,27.6,32.7,41.3,49.2c7.3,8.8,18.7,9.2,26.4,0.6c17.1-19,34.1-38.2,51.5-56.9c6.2-6.6,25.4-9.5,32.5-4.2
		c3.8,2.8,6.4,8.8,7.3,13.8c1.2,7.3,0.6,15,0.2,22.5c-0.3,5.4,1.4,7.6,7.1,8.7c37.6,7.4,75.4,14.3,112.7,23.2
		c54.5,13,90.4,47.3,104.2,101.6c31.8,125.3,62.1,251,93.2,376.5c2,8.1,4.1,15.7-4.8,21.4c-1.3,0.8-1.2,4.5-0.9,6.8
		c1.2,9.1,2.6,18.2,4.1,27.2c1.5,9.1-3.3,13.8-14.4,14.4c-13.5,0.7-26.5,4.4-39,9.6c-9.1,3.8-15,1.8-17.9-6
		c-4.2-11.5-8.3-22.9-12.6-34.6c-2.6,0.3-4.8,0.5-6.9,0.9c-10.2,1.7-13.4,0-17.4-9.5c-36-85.6-72-171.2-108.1-256.8
		c-3.4-8.1-6.9-16.1-12-23.9c0.5,7.8,1,15.7,1.4,23.5c3.6,68.9,7.2,137.9,10.9,206.8c2.4,44.2,4.9,88.4,7.3,132.6
		c2.3,42.7,4.5,85.4,6.8,128.1c0.4,7.5-2.7,12.5-9,16.5c-85.2,54.8-170.3,109.7-255.4,164.6c-67.8,43.7-135.6,87.5-203.4,131.2
		c-2.3,1.5-4.6,3.1-7.1,4.4c-11.2,6.1-22.1-0.4-21.2-13.1c1.4-19.1,3.6-38.2,5.7-57.3c5.9-54.5,11.8-109,17.7-163.5
		c8.3-76.6,16.6-153.2,24.8-229.9c6.4-59.8,12.6-119.5,19-179.3c5.9-54.7,11.9-109.4,17.8-164.1
		C-1332-256.9-1331.7-256.9-1332.6-257.1z M-729.4,39.1c-4.7-3.6-7.3-7.2-9.8-7c-2.5,0.1-6.4,3.8-6.6,6.1c-0.2,2.2,3.5,6.2,6,6.6
		C-737.4,45.2-734.4,42.1-729.4,39.1z M-1529.9,28.6c-3.6,4.4-7.3,7-7.2,9.3c0.1,2.5,3.7,6.5,6.1,6.8c2.2,0.2,6.3-3.4,6.8-5.9
		C-1523.8,36.5-1527,33.4-1529.9,28.6z"/>
	<path class="st0" d="M-2308.1-93.4c-3,1.8-4.8,3.7-6.2,3.4c-1.5-0.3-3.7-2.6-3.6-4c0.1-1.4,2.5-3.6,3.9-3.7
		C-2312.5-97.7-2310.9-95.5-2308.1-93.4z"/>
</g>
<g>
	<g>
		<path class="st1" d="M-1354.9,1454.7h561l-48.8-770.9l135.7,317.4c0,0,2.1,22.1,27.5,9.7l14.2,39.1c0,0-4.5,21.2,38.1,0.5
			c0,0,68.8-5.9,37.9-51.6c0,0,12.9-6.2,6.5-32c-6.4-25.8-105.3-425.7-105.3-425.7s-4.9-123.2-241.3-140.8c-4.2-0.3-9.5-1.9-12.6,1
			c-51.8,48.7-111.6,119.2-111.6,119.2c0,0-35.2-25.8-103.5-120.3c0,0-261.7,13-274.7,141.3L-1537,967.2c0,0-2,27.4,12.6,26.5
			c0,0-5.6,23.7-5.4,35.1c0.2,11.4,19.2,20.8,34,24.3c14.8,3.5,42.1,11,48.2-6.2c6.1-17.2,9.1-45.6,34.4-44.2l135.9-318.5
			L-1354.9,1454.7z"/>
		<path d="M-1517.9,1017.4c0.1,2.8,4.2,7.4,6.9,7.7c2.5,0.3,7.2-3.9,7.7-6.7"/>
		<path d="M-611.1,1019.3c0.1,2.8,4.2,7.4,6.9,7.7c2.5,0.3,7.2-3.9,7.7-6.7"/>
	</g>
	<path class="st1" d="M-1334.6,1499.5h521.3c10.6,0,19-8.9,18.3-19.5l-47.6-751.4l135.7,317.4c0,0,2.1,22.1,27.5,9.7l14.2,39.1
		c0,0-4.5,21.2,38.1,0.5c0,0,68.8-5.9,37.9-51.6c0,0,12.9-6.2,6.5-32C-589.1,985.9-688.1,586-688.1,586s-4.9-124.6-245.3-141.1
		c0,0-26.5-0.1-61.8,33.5c-34.7,33-89.1,32.6-123-1.3c-21.5-21.5-48.7-36.4-80.8-29.8c0,0-219.8,10.8-232.8,139L-1537,1012
		c0,0-2,27.4,12.6,26.5c0,0-5.6,23.7-5.4,35.1c0.2,11.4,19.2,20.8,34,24.3c14.8,3.5,42.1,11,48.2-6.2s9.1-45.6,34.4-44.2
		l135.9-318.5l-75.4,750.3C-1354,1490.1-1345.5,1499.5-1334.6,1499.5z"/>
</g>
<g>
	<path d="M422-486.7c6.2-6.6,25.4-9.5,32.5-4.2c3.8,2.8,6.4,8.8,7.3,13.8c1.2,7.3,0.6,15,0.2,22.5c-0.3,5.4,1.4,7.6,7.1,8.7
		c37.6,7.4,75.4,14.3,112.7,23.2c54.5,13,90.4,47.3,104.2,101.6c31.8,125.3,62.1,251,93.2,376.5c2,8.1,4.1,15.7-4.8,21.4
		c-1.3,0.8-1.2,4.5-0.9,6.8c1.2,9.1,2.6,18.2,4.1,27.2c1.5,9.1-3.3,13.8-14.4,14.4c-13.5,0.7-26.5,4.4-39,9.6
		c-9.1,3.8-15,1.8-17.9-6c-4.2-11.5-8.3-22.9-12.6-34.6c-2.6,0.3-4.8,0.5-6.9,0.9c-10.2,1.7-13.4,0-17.4-9.5
		c-36-85.6-72-171.2-108.1-256.8c-3.4-8.1-6.9-16.1-12-23.9c0.5,7.8,1,15.7,1.4,23.5c3.6,68.9,7.2,137.9,10.9,206.8
		c2.4,44.2,4.9,88.4,7.3,132.6c2.3,42.7,4.5,85.4,6.8,128.1c0.4,7.5-2.7,12.5-9,16.5c-85.2,54.8-170.3,109.7-255.4,164.6
		c-67.8,43.7-135.6,87.5-203.4,131.2c-2.3,1.5-4.6,3.1-7.1,4.4c-11.2,6.1-22.1-0.4-21.2-13.1c1.4-19.1,3.6-38.2,5.7-57.3
		c5.9-54.5,11.8-109,17.7-163.5c8.3-76.6,16.6-153.2,24.8-229.9c6.4-59.8,12.6-119.5,19-179.3c5.9-54.7,11.9-109.4,17.8-164.1
		c-0.9-0.2-0.7-0.2-1.6-0.4c-10,23.8-20,47.6-30,71.4C103.6-53.5,74.1,16.7,44.6,86.9c-3.6,8.6-10.1,10.3-19.2,7.5
		c-3.8,10.8-7.5,21.2-11.2,31.6c-4.6,12.7-6.8,13.9-19.7,10.9c-14.1-3.4-28.1-6.6-42.2-10.1c-10.5-2.6-12.5-6-10.9-16.8
		c1.6-10.4,3.2-20.8,4.8-31c-14.1-6.6-14.8-8.4-11.1-23.4C-33.9-70-3.5-195.7,28.3-321c14.5-57.1,53-91.2,110.5-103.5
		c38.9-8.3,77.9-15.9,117.7-24c0-9.9-0.1-19.6,0-29.3c0.2-10.4,5.1-14.2,15.5-15.4 M766.4,101.1c-4.7-3.6-7.3-7.2-9.8-7
		c-2.5,0.1-6.4,3.8-6.6,6.1c-0.2,2.2,3.5,6.2,6,6.6C758.4,107.2,761.4,104.1,766.4,101.1z M-34.1,90.6c-3.6,4.4-7.3,7-7.2,9.3
		c0.1,2.5,3.7,6.5,6.1,6.8c2.2,0.2,6.3-3.4,6.8-5.9C-28.1,98.5-31.3,95.4-34.1,90.6z"/>
	<path class="st0" d="M-812.4-31.4c-3,1.8-4.8,3.7-6.2,3.4c-1.5-0.3-3.7-2.6-3.6-4c0.1-1.4,2.5-3.6,3.9-3.7
		C-816.8-35.7-815.2-33.5-812.4-31.4z"/>
</g>
</svg>
