<?xml version="1.0" encoding="utf-8"?>
<!-- Generator: Adobe Illustrator 19.0.0, SVG Export Plug-In . SVG Version: 6.00 Build 0)  -->
<svg version="1.1" id="Layer_1" xmlns="http://www.w3.org/2000/svg" xmlns:xlink="http://www.w3.org/1999/xlink" x="0px" y="0px"
	 viewBox="-159.2 -522.3 1029.1 1146.1" style="enable-background:new -159.2 -522.3 1029.1 1146.1;" xml:space="preserve">
<style type="text/css">
	.st0{fill:#A51717;stroke:#4C4C4C;stroke-miterlimit:10;}
	.st1{fill:#C12121;}
	.st2{fill:#FFFFFF;}
</style>
<g>
	<g>
		<path class="st0" d="M1487.4-256.4h93l-8.1-127.8l22.5,52.6c0,0,0.4,3.7,4.6,1.6l2.4,6.5c0,0-0.7,3.5,6.3,0.1c0,0,11.4-1,6.3-8.6
			c0,0,2.1-1,1.1-5.3c-1.1-4.3-17.5-70.6-17.5-70.6s-0.8-20.4-40-23.4c-0.7-0.1-1.6-0.3-2.1,0.2c-8.6,8.1-18.5,19.8-18.5,19.8
			s-5.8-4.3-17.2-20c0,0-43.4,2.2-45.6,23.4l-17.5,70.6c0,0-0.3,4.5,2.1,4.4c0,0-0.9,3.9-0.9,5.8s3.2,3.4,5.6,4s7,1.8,8-1
			c1-2.8,1.5-7.6,5.7-7.3l22.5-52.8L1487.4-256.4z"/>
		<path d="M1539.7-599c0,0.5,0.7,1.2,1.1,1.3c0.4,0,1.2-0.6,1.3-1.1"/>
		<path d="M1690-598.7c0,0.5,0.7,1.2,1.1,1.3c0.4,0,1.2-0.6,1.3-1.1"/>
	</g>
	<path class="st1" d="M1490.8-213.8h86.4c1.8,0,3.1-1.5,3-3.2l-7.9-124.6l22.5,52.6c0,0,0.4,3.7,4.6,1.6l2.4,6.5
		c0,0-0.7,3.5,6.3,0.1c0,0,11.4-1,6.3-8.6c0,0,2.1-1,1.1-5.3s-17.5-70.6-17.5-70.6s-0.8-20.7-40.7-23.4c0,0-4.4,0-10.3,5.6
		c-5.8,5.5-14.8,5.4-20.4-0.2c-3.6-3.6-8.1-6-13.4-4.9c0,0-36.4,1.8-38.6,23.1l-17.5,70.6c0,0-0.3,4.5,2.1,4.4c0,0-0.9,3.9-0.9,5.8
		s3.2,3.4,5.6,4s7,1.8,8-1c1-2.8,1.5-7.6,5.7-7.3l22.5-52.8l-12.5,124.4C1487.6-215.4,1489-213.8,1490.8-213.8z"/>
</g>
<g>
	<g>
		<path d="M1690.8-483.3c-1,2.5-2.1,5-3.1,7.5c-3.1,7.3-6.2,14.7-9.3,22c-0.4,0.9-1.1,1.1-2,0.8c-0.4,1.1-0.8,2.2-1.2,3.3
			c-0.5,1.3-0.7,1.5-2.1,1.1c-1.5-0.4-2.9-0.7-4.4-1.1c-1.1-0.3-1.3-0.6-1.1-1.8c0.2-1.1,0.3-2.2,0.5-3.2c-1.5-0.7-1.6-0.9-1.2-2.4
			c3.2-13.1,6.4-26.3,9.7-39.3c1.5-6,5.5-9.5,11.5-10.8c4.1-0.9,8.1-1.7,12.3-2.5c0-1,0-2,0-3.1c0-1.1,0.5-1.5,1.6-1.6
			c1.4-0.2,2.4,0.3,3.2,1.4c1.4,1.7,2.9,3.4,4.3,5.1c0.8,0.9,2,1,2.8,0.1c1.8-2,3.6-4,5.4-6c0.6-0.7,2.7-1,3.4-0.4
			c0.4,0.3,0.7,0.9,0.8,1.4c0.1,0.8,0.1,1.6,0,2.4c0,0.6,0.1,0.8,0.7,0.9c3.9,0.8,7.9,1.5,11.8,2.4c5.7,1.4,9.5,4.9,10.9,10.6
			c3.3,13.1,6.5,26.2,9.7,39.3c0.2,0.9,0.4,1.6-0.5,2.2c-0.1,0.1-0.1,0.5-0.1,0.7c0.1,1,0.3,1.9,0.4,2.8c0.2,0.9-0.3,1.4-1.5,1.5
			c-1.4,0.1-2.8,0.5-4.1,1c-1,0.4-1.6,0.2-1.9-0.6c-0.4-1.2-0.9-2.4-1.3-3.6c-0.3,0-0.5,0.1-0.7,0.1c-1.1,0.2-1.4,0-1.8-1
			c-3.8-8.9-7.5-17.9-11.3-26.8c-0.4-0.8-0.7-1.7-1.3-2.5c0,0.8,0.1,1.6,0.1,2.5c0.4,7.2,0.8,14.4,1.1,21.6
			c0.2,4.6,0.5,9.2,0.8,13.9c0.2,4.5,0.5,8.9,0.7,13.4c0,0.8-0.3,1.3-0.9,1.7c-8.9,5.7-17.8,11.5-26.7,17.2
			c-7.1,4.6-14.2,9.1-21.3,13.7c-0.2,0.2-0.5,0.3-0.7,0.5c-1.2,0.6-2.3,0-2.2-1.4c0.1-2,0.4-4,0.6-6c0.6-5.7,1.2-11.4,1.9-17.1
			c0.9-8,1.7-16,2.6-24c0.7-6.2,1.3-12.5,2-18.7c0.6-5.7,1.2-11.4,1.9-17.2C1690.9-483.3,1690.9-483.3,1690.8-483.3z M1753.8-452.3
			c-0.5-0.4-0.8-0.7-1-0.7c-0.3,0-0.7,0.4-0.7,0.6c0,0.2,0.4,0.6,0.6,0.7C1753-451.7,1753.3-452,1753.8-452.3z M1670.2-453.4
			c-0.4,0.5-0.8,0.7-0.8,1c0,0.3,0.4,0.7,0.6,0.7c0.2,0,0.7-0.4,0.7-0.6C1670.8-452.6,1670.5-452.9,1670.2-453.4z"/>
		<path class="st2" d="M1588.8-466.2c-0.3,0.2-0.5,0.4-0.6,0.4c-0.2,0-0.4-0.3-0.4-0.4c0-0.1,0.3-0.4,0.4-0.4
			C1588.4-466.6,1588.5-466.4,1588.8-466.2z"/>
	</g>
	<g>
		<path d="M1714.1-521.5c0.6-0.7,2.7-1,3.4-0.4c0.4,0.3,0.7,0.9,0.8,1.4c0.1,0.8,0.1,1.6,0,2.4c0,0.6,0.1,0.8,0.7,0.9
			c3.9,0.8,7.9,1.5,11.8,2.4c5.7,1.4,9.5,4.9,10.9,10.6c3.3,13.1,6.5,26.2,9.7,39.3c0.2,0.9,0.4,1.6-0.5,2.2
			c-0.1,0.1-0.1,0.5-0.1,0.7c0.1,1,0.3,1.9,0.4,2.8c0.2,0.9-0.3,1.4-1.5,1.5c-1.4,0.1-2.8,0.5-4.1,1c-1,0.4-1.6,0.2-1.9-0.6
			c-0.4-1.2-0.9-2.4-1.3-3.6c-0.3,0-0.5,0.1-0.7,0.1c-1.1,0.2-1.4,0-1.8-1c-3.8-8.9-7.5-17.9-11.3-26.8c-0.4-0.8-0.7-1.7-1.3-2.5
			c0,0.8,0.1,1.6,0.1,2.5c0.4,7.2,0.8,14.4,1.1,21.6c0.2,4.6,0.5,9.2,0.8,13.9c0.2,4.5,0.5,8.9,0.7,13.4c0,0.8-0.3,1.3-0.9,1.7
			c-8.9,5.7-17.8,11.5-26.7,17.2c-7.1,4.6-14.2,9.1-21.3,13.7c-0.2,0.2-0.5,0.3-0.7,0.5c-1.2,0.6-2.3,0-2.2-1.4c0.1-2,0.4-4,0.6-6
			c0.6-5.7,1.2-11.4,1.9-17.1c0.9-8,1.7-16,2.6-24c0.7-6.2,1.3-12.5,2-18.7c0.6-5.7,1.2-11.4,1.9-17.2c-0.1,0-0.1,0-0.2,0
			c-1,2.5-2.1,5-3.1,7.5c-3.1,7.3-6.2,14.7-9.3,22c-0.4,0.9-1.1,1.1-2,0.8c-0.4,1.1-0.8,2.2-1.2,3.3c-0.5,1.3-0.7,1.5-2.1,1.1
			c-1.5-0.4-2.9-0.7-4.4-1.1c-1.1-0.3-1.3-0.6-1.1-1.8c0.2-1.1,0.3-2.2,0.5-3.2c-1.5-0.7-1.6-0.9-1.2-2.4
			c3.2-13.1,6.4-26.3,9.7-39.3c1.5-6,5.5-9.5,11.5-10.8c4.1-0.9,8.1-1.7,12.3-2.5c0-1,0-2,0-3.1c0-1.1,0.5-1.5,1.6-1.6
			 M1750.1-460.1c-0.5-0.4-0.8-0.7-1-0.7c-0.3,0-0.7,0.4-0.7,0.6c0,0.2,0.4,0.6,0.6,0.7C1749.2-459.5,1749.5-459.8,1750.1-460.1z
			 M1666.4-461.2c-0.4,0.5-0.8,0.7-0.8,1c0,0.3,0.4,0.7,0.6,0.7c0.2,0,0.7-0.4,0.7-0.6C1667-460.4,1666.7-460.7,1666.4-461.2z"/>
		<path class="st2" d="M1585.1-473.9c-0.3,0.2-0.5,0.4-0.6,0.4c-0.2,0-0.4-0.3-0.4-0.4c0-0.1,0.3-0.4,0.4-0.4
			C1584.6-474.4,1584.8-474.2,1585.1-473.9z"/>
	</g>
</g>
<g>
	<path d="M1544.8-822.7c0.4,0,0.8,0,1.2,0c5.8,3.8,12.3,4.5,12.3,4.5s11.8,2.6,20.6,2.5c4.5-0.1,14.8,0.8,24.7-7c0.4,0,0.8,0,1.2,0
		c0.6,0.2,1.2,0.6,1.8,0.7c5.9,1.5,11.8,2.9,17.6,4.4c6.6,1.7,13.4,3,19.8,5.3c9.3,3.3,17.2,8.9,22.7,17.4
		c9.5,14.6,18.9,29.1,28.4,43.7c1.4,2.2,2.8,4.2,4.4,6.5c-12.1,7.4-24,14.6-36.1,22c-7-10.4-13.8-20.6-20.7-30.8
		c-0.2,0-0.4,0.1-0.5,0.1c0,1,0,2,0,2.9c0,58.6,0,117.2,0,175.7c0,0.8-0.1,1.6-0.2,2.4c-44.8,0-89.6,0-134.4,0
		c0-0.9-0.2-1.8-0.2-2.8c0-58.6,0-117.2,0-175.8c0-0.8,0-1.7,0-2.5c-0.2,0-0.3-0.1-0.5-0.1c-6.9,10.2-13.8,20.5-20.8,30.9
		c-12.1-7.4-24.1-14.7-36.1-22c0.8-1.2,1.4-2.2,2-3.2c10-15.2,20-30.3,29.8-45.6c6.3-10,15.2-16.4,26.2-19.6
		c10.8-3.2,21.9-5.6,32.9-8.3C1542.4-821.8,1543.6-822.2,1544.8-822.7z"/>
	<path d="M1572.9-828.3c0.4,0,0.8,0,1.2,0c2.4,4.8,5.9,8.8,10.1,12.2c6.8,5.6,14.5,8.2,23.2,6.6c11.4-2,18.8-9.2,24.3-18.9
		c0.4,0,0.8,0,1.2,0c0.6,0.2,1.2,0.6,1.8,0.7c5.9,1.5,11.8,2.9,17.6,4.4c6.6,1.7,13.4,3,19.8,5.3c9.3,3.3,17.2,8.9,22.7,17.4
		c9.5,14.6,18.9,29.1,28.4,43.7c1.4,2.2,2.8,4.2,4.4,6.5c-12.1,7.4-24,14.6-36.1,22c-7-10.4-13.8-20.6-20.7-30.8
		c-0.2,0-0.4,0.1-0.5,0.1c0,1,0,2,0,2.9c0,58.6,0,117.2,0,175.7c0,0.8-0.1,1.6-0.2,2.4c-44.8,0-89.6,0-134.4,0
		c0-0.9-0.2-1.8-0.2-2.8c0-58.6,0-117.2,0-175.8c0-0.8,0-1.7,0-2.5c-0.2,0-0.3-0.1-0.5-0.1c-6.9,10.2-13.8,20.5-20.8,30.9
		c-12.1-7.4-24.1-14.7-36.1-22c0.8-1.2,1.4-2.2,2-3.2c10-15.2,20-30.3,29.8-45.6c6.3-10,15.2-16.4,26.2-19.6
		c10.8-3.2,21.9-5.6,32.9-8.3C1570.4-827.4,1571.6-827.9,1572.9-828.3z"/>
</g>
</svg>
