<?xml version="1.0" encoding="utf-8"?>
<!-- Generator: Adobe Illustrator 19.0.0, SVG Export Plug-In . SVG Version: 6.00 Build 0)  -->
<svg version="1.1" id="Layer_1" xmlns="http://www.w3.org/2000/svg" xmlns:xlink="http://www.w3.org/1999/xlink" x="0px" y="0px"
	 viewBox="-159.2 -522.3 1029.1 1146.1" style="enable-background:new -159.2 -522.3 1029.1 1146.1;" xml:space="preserve">
<style type="text/css">
	.st0{fill:#4C4C4C;}
	.st1{fill:#FFFFFF;}
</style>
<path d="M236.1-442.9c1.6,0,3.2,0,4.8,0c9.7,19.3,23.6,35.1,40.2,48.8c26.9,22.2,57.7,32.7,92.5,26.5c45.3-8,75.1-36.8,96.9-75.3
	c1.6,0,3.2,0,4.8,0c2.4,1,4.6,2.4,7.2,2.9c23.4,5.9,46.9,11.6,70.3,17.7c26.5,6.9,53.4,12,79.1,21.2c37.2,13.2,68.6,35.6,90.6,69.4
	c37.8,58,75.4,116.1,113.1,174.1c5.6,8.6,11.3,16.9,17.4,26c-48.3,29.5-95.8,58.4-144,87.9C681-85.2,653.7-126,626.3-166.7
	c-0.6,0.2-1.4,0.3-2.1,0.5c0,3.8,0,7.8,0,11.6c0,233.4,0,467,0,700.5c0,3.2-0.5,6.4-0.6,9.4c-178.6,0-357.2,0-535.8,0
	c-0.2-3.7-0.6-7.3-0.6-11c0-233.6,0-467,0-700.7c0-3.3,0-6.7,0-10c-0.6-0.2-1.3-0.3-1.9-0.5C57.8-126,30.4-85.2,2.5-43.7
	c-48.3-29.7-96-58.7-144-87.9c3-4.8,5.6-8.8,8.1-12.8c39.7-60.6,79.9-120.7,118.8-181.9c25.2-39.7,60.8-65.2,104.6-78.3
	c43.2-12.9,87.4-22.2,131.2-33.2C226.4-439.2,231.2-441.1,236.1-442.9z"/>
<g>
	<g>
		<path class="st0" d="M1455.7-358.4h93l-8.1-127.8l22.5,52.6c0,0,0.4,3.7,4.6,1.6l2.4,6.5c0,0-0.7,3.5,6.3,0.1c0,0,11.4-1,6.3-8.6
			c0,0,2.1-1,1.1-5.3c-1.1-4.3-17.5-70.6-17.5-70.6s-0.8-20.4-40-23.4c-0.7-0.1-1.6-0.3-2.1,0.2c-8.6,8.1-18.5,19.8-18.5,19.8
			s-5.8-4.3-17.2-20c0,0-43.4,2.2-45.6,23.4l-17.5,70.6c0,0-0.3,4.5,2.1,4.4c0,0-0.9,3.9-0.9,5.8s3.2,3.4,5.6,4s7,1.8,8-1
			c1-2.8,1.5-7.6,5.7-7.3l22.5-52.8L1455.7-358.4z"/>
		<path d="M1428.7-430.9c0,0.5,0.7,1.2,1.1,1.3c0.4,0,1.2-0.6,1.3-1.1"/>
		<path d="M1579-430.6c0,0.5,0.7,1.2,1.1,1.3c0.4,0,1.2-0.6,1.3-1.1"/>
	</g>
	<path class="st0" d="M1459.1-370.2h86.4c1.8,0,3.1-1.5,3-3.2l-7.9-124.6l22.5,52.6c0,0,0.4,3.7,4.6,1.6l2.4,6.5
		c0,0-0.7,3.5,6.3,0.1c0,0,11.4-1,6.3-8.6c0,0,2.1-1,1.1-5.3c-1.1-4.3-17.5-70.6-17.5-70.6s-0.8-20.7-40.7-23.4c0,0-4.4,0-10.3,5.6
		c-5.8,5.5-14.8,5.4-20.4-0.2c-3.6-3.6-8.1-6-13.4-4.9c0,0-36.4,1.8-38.6,23.1l-17.5,70.6c0,0-0.3,4.5,2.1,4.4c0,0-0.9,3.9-0.9,5.8
		s3.2,3.4,5.6,4s7,1.8,8-1c1-2.8,1.5-7.6,5.7-7.3l22.5-52.8L1456-373.6C1455.9-371.8,1457.3-370.2,1459.1-370.2z"/>
</g>
<g>
	<g>
		<path d="M1690.8-483.3c-1,2.5-2.1,5-3.1,7.5c-3.1,7.3-6.2,14.7-9.3,22c-0.4,0.9-1.1,1.1-2,0.8c-0.4,1.1-0.8,2.2-1.2,3.3
			c-0.5,1.3-0.7,1.5-2.1,1.1c-1.5-0.4-2.9-0.7-4.4-1.1c-1.1-0.3-1.3-0.6-1.1-1.8c0.2-1.1,0.3-2.2,0.5-3.2c-1.5-0.7-1.6-0.9-1.2-2.4
			c3.2-13.1,6.4-26.3,9.7-39.3c1.5-6,5.5-9.5,11.5-10.8c4.1-0.9,8.1-1.7,12.3-2.5c0-1,0-2,0-3.1c0-1.1,0.5-1.5,1.6-1.6
			c1.4-0.2,2.4,0.3,3.2,1.4c1.4,1.7,2.9,3.4,4.3,5.1c0.8,0.9,2,1,2.8,0.1c1.8-2,3.6-4,5.4-6c0.6-0.7,2.7-1,3.4-0.4
			c0.4,0.3,0.7,0.9,0.8,1.4c0.1,0.8,0.1,1.6,0,2.4c0,0.6,0.1,0.8,0.7,0.9c3.9,0.8,7.9,1.5,11.8,2.4c5.7,1.4,9.5,4.9,10.9,10.6
			c3.3,13.1,6.5,26.2,9.7,39.3c0.2,0.9,0.4,1.6-0.5,2.2c-0.1,0.1-0.1,0.5-0.1,0.7c0.1,1,0.3,1.9,0.4,2.8c0.2,0.9-0.3,1.4-1.5,1.5
			c-1.4,0.1-2.8,0.5-4.1,1c-1,0.4-1.6,0.2-1.9-0.6c-0.4-1.2-0.9-2.4-1.3-3.6c-0.3,0-0.5,0.1-0.7,0.1c-1.1,0.2-1.4,0-1.8-1
			c-3.8-8.9-7.5-17.9-11.3-26.8c-0.4-0.8-0.7-1.7-1.3-2.5c0,0.8,0.1,1.6,0.1,2.5c0.4,7.2,0.8,14.4,1.1,21.6
			c0.2,4.6,0.5,9.2,0.8,13.9c0.2,4.5,0.5,8.9,0.7,13.4c0,0.8-0.3,1.3-0.9,1.7c-8.9,5.7-17.8,11.5-26.7,17.2
			c-7.1,4.6-14.2,9.1-21.3,13.7c-0.2,0.2-0.5,0.3-0.7,0.5c-1.2,0.6-2.3,0-2.2-1.4c0.1-2,0.4-4,0.6-6c0.6-5.7,1.2-11.4,1.9-17.1
			c0.9-8,1.7-16,2.6-24c0.7-6.2,1.3-12.5,2-18.7c0.6-5.7,1.2-11.4,1.9-17.2C1690.9-483.3,1690.9-483.3,1690.8-483.3z M1753.8-452.3
			c-0.5-0.4-0.8-0.7-1-0.7c-0.3,0-0.7,0.4-0.7,0.6c0,0.2,0.4,0.6,0.6,0.7C1753-451.7,1753.3-452,1753.8-452.3z M1670.2-453.4
			c-0.4,0.5-0.8,0.7-0.8,1c0,0.3,0.4,0.7,0.6,0.7c0.2,0,0.7-0.4,0.7-0.6C1670.8-452.6,1670.5-452.9,1670.2-453.4z"/>
		<path class="st1" d="M1588.8-466.2c-0.3,0.2-0.5,0.4-0.6,0.4c-0.2,0-0.4-0.3-0.4-0.4c0-0.1,0.3-0.4,0.4-0.4
			C1588.4-466.6,1588.5-466.4,1588.8-466.2z"/>
	</g>
	<g>
		<path d="M1714.1-521.5c0.6-0.7,2.7-1,3.4-0.4c0.4,0.3,0.7,0.9,0.8,1.4c0.1,0.8,0.1,1.6,0,2.4c0,0.6,0.1,0.8,0.7,0.9
			c3.9,0.8,7.9,1.5,11.8,2.4c5.7,1.4,9.5,4.9,10.9,10.6c3.3,13.1,6.5,26.2,9.7,39.3c0.2,0.9,0.4,1.6-0.5,2.2
			c-0.1,0.1-0.1,0.5-0.1,0.7c0.1,1,0.3,1.9,0.4,2.8c0.2,0.9-0.3,1.4-1.5,1.5c-1.4,0.1-2.8,0.5-4.1,1c-1,0.4-1.6,0.2-1.9-0.6
			c-0.4-1.2-0.9-2.4-1.3-3.6c-0.3,0-0.5,0.1-0.7,0.1c-1.1,0.2-1.4,0-1.8-1c-3.8-8.9-7.5-17.9-11.3-26.8c-0.4-0.8-0.7-1.7-1.3-2.5
			c0,0.8,0.1,1.6,0.1,2.5c0.4,7.2,0.8,14.4,1.1,21.6c0.2,4.6,0.5,9.2,0.8,13.9c0.2,4.5,0.5,8.9,0.7,13.4c0,0.8-0.3,1.3-0.9,1.7
			c-8.9,5.7-17.8,11.5-26.7,17.2c-7.1,4.6-14.2,9.1-21.3,13.7c-0.2,0.2-0.5,0.3-0.7,0.5c-1.2,0.6-2.3,0-2.2-1.4c0.1-2,0.4-4,0.6-6
			c0.6-5.7,1.2-11.4,1.9-17.1c0.9-8,1.7-16,2.6-24c0.7-6.2,1.3-12.5,2-18.7c0.6-5.7,1.2-11.4,1.9-17.2c-0.1,0-0.1,0-0.2,0
			c-1,2.5-2.1,5-3.1,7.5c-3.1,7.3-6.2,14.7-9.3,22c-0.4,0.9-1.1,1.1-2,0.8c-0.4,1.1-0.8,2.2-1.2,3.3c-0.5,1.3-0.7,1.5-2.1,1.1
			c-1.5-0.4-2.9-0.7-4.4-1.1c-1.1-0.3-1.3-0.6-1.1-1.8c0.2-1.1,0.3-2.2,0.5-3.2c-1.5-0.7-1.6-0.9-1.2-2.4
			c3.2-13.1,6.4-26.3,9.7-39.3c1.5-6,5.5-9.5,11.5-10.8c4.1-0.9,8.1-1.7,12.3-2.5c0-1,0-2,0-3.1c0-1.1,0.5-1.5,1.6-1.6
			 M1750.1-460.1c-0.5-0.4-0.8-0.7-1-0.7c-0.3,0-0.7,0.4-0.7,0.6c0,0.2,0.4,0.6,0.6,0.7C1749.2-459.5,1749.5-459.8,1750.1-460.1z
			 M1666.4-461.2c-0.4,0.5-0.8,0.7-0.8,1c0,0.3,0.4,0.7,0.6,0.7c0.2,0,0.7-0.4,0.7-0.6C1667-460.4,1666.7-460.7,1666.4-461.2z"/>
		<path class="st1" d="M1585.1-473.9c-0.3,0.2-0.5,0.4-0.6,0.4c-0.2,0-0.4-0.3-0.4-0.4c0-0.1,0.3-0.4,0.4-0.4
			C1584.6-474.4,1584.8-474.2,1585.1-473.9z"/>
	</g>
</g>
</svg>
