<?xml version="1.0" encoding="utf-8"?>
<!-- Generator: Adobe Illustrator 19.0.0, SVG Export Plug-In . SVG Version: 6.00 Build 0)  -->
<svg version="1.1" id="Layer_1" xmlns="http://www.w3.org/2000/svg" xmlns:xlink="http://www.w3.org/1999/xlink" x="0px" y="0px"
	 viewBox="-159.2 -522.3 1029.1 1146.1" style="enable-background:new -159.2 -522.3 1029.1 1146.1;" xml:space="preserve">
<style type="text/css">
	.st0{fill:#4C4C4C;}
	.st1{fill:#FFFFFF;}
</style>
<path d="M1670.8-116.5c1,0,2,0,3,0c6.1,12.1,14.8,22,25.2,30.6c16.9,13.9,36.2,20.5,58,16.6c28.4-5,47.1-23.1,60.8-47.2c1,0,2,0,3,0
	c1.5,0.6,2.9,1.5,4.5,1.8c14.7,3.7,29.4,7.3,44.1,11.1c16.6,4.3,33.5,7.5,49.6,13.3c23.3,8.3,43,22.3,56.8,43.5
	c23.7,36.4,47.3,72.8,70.9,109.2c3.5,5.4,7.1,10.6,10.9,16.3c-30.3,18.5-60.1,36.6-90.3,55.1c-17.5-26-34.6-51.6-51.8-77.1
	c-0.4,0.1-0.9,0.2-1.3,0.3c0,2.4,0,4.9,0,7.3c0,146.4,0,292.9,0,439.3c0,2-0.3,4-0.4,5.9c-112,0-224,0-336,0
	c-0.1-2.3-0.4-4.6-0.4-6.9c0-146.5,0-292.9,0-439.4c0-2.1,0-4.2,0-6.3c-0.4-0.1-0.8-0.2-1.2-0.3c-17.2,25.6-34.4,51.2-51.9,77.2
	c-30.3-18.6-60.2-36.8-90.3-55.1c1.9-3,3.5-5.5,5.1-8c24.9-38,50.1-75.7,74.5-114.1c15.8-24.9,38.1-40.9,65.6-49.1
	c27.1-8.1,54.8-13.9,82.3-20.8C1664.7-114.2,1667.7-115.4,1670.8-116.5z"/>
<g>
	<path class="st0" d="M59.9,578.3h561l-48.8-770.9l135.7,317.4c0,0,2.1,22.1,27.5,9.7l14.2,39.1c0,0-4.5,21.2,38.1,0.5
		c0,0,68.8-5.9,37.9-51.6c0,0,12.9-6.2,6.5-32S726.8-335.2,726.8-335.2S721.9-458.4,485.5-476c-4.2-0.3-9.5-1.9-12.6,1
		c-51.8,48.7-111.6,119.2-111.6,119.2c0,0-35.2-25.8-103.5-120.3c0,0-261.7,13-274.7,141.3L-122.2,90.8c0,0-2,27.4,12.6,26.5
		c0,0-5.6,23.7-5.4,35.1c0.2,11.4,19.2,20.8,34,24.3c14.8,3.5,42.1,11,48.2-6.2s9.1-45.6,34.4-44.2l135.9-318.5L59.9,578.3z"/>
	<path d="M-103.1,141c0.1,2.8,4.2,7.4,6.9,7.7c2.5,0.3,7.2-3.9,7.7-6.7"/>
	<path d="M803.7,142.9c0.1,2.8,4.2,7.4,6.9,7.7c2.5,0.3,7.2-3.9,7.7-6.7"/>
</g>
<path class="st0" d="M-1315.4,444.9h521.3c10.6,0,19-8.9,18.3-19.5l-47.6-751.4L-687.7-8.7c0,0,2.1,22.1,27.5,9.7l14.2,39.1
	c0,0-4.5,21.2,38.1,0.5c0,0,68.8-5.9,37.9-51.6c0,0,12.9-6.2,6.5-32s-105.3-425.7-105.3-425.7s-4.9-124.6-245.3-141.1
	c0,0-26.5-0.1-61.8,33.5c-34.7,33-89.1,32.6-123-1.3c-21.5-21.5-48.7-36.4-80.8-29.8c0,0-219.8,10.8-232.8,139l-105.3,425.7
	c0,0-2,27.4,12.6,26.5c0,0-5.6,23.7-5.4,35.1c0.2,11.4,19.2,20.8,34,24.3c14.8,3.5,42.1,11,48.2-6.2c6.1-17.2,9.1-45.6,34.4-44.2
	l135.9-318.5l-75.4,750.3C-1334.8,435.5-1326.3,444.9-1315.4,444.9z"/>
<g>
	<g>
		<path d="M1690.8-483.3c-1,2.5-2.1,5-3.1,7.5c-3.1,7.3-6.2,14.7-9.3,22c-0.4,0.9-1.1,1.1-2,0.8c-0.4,1.1-0.8,2.2-1.2,3.3
			c-0.5,1.3-0.7,1.5-2.1,1.1c-1.5-0.4-2.9-0.7-4.4-1.1c-1.1-0.3-1.3-0.6-1.1-1.8c0.2-1.1,0.3-2.2,0.5-3.2c-1.5-0.7-1.6-0.9-1.2-2.4
			c3.2-13.1,6.4-26.3,9.7-39.3c1.5-6,5.5-9.5,11.5-10.8c4.1-0.9,8.1-1.7,12.3-2.5c0-1,0-2,0-3.1c0-1.1,0.5-1.5,1.6-1.6
			c1.4-0.2,2.4,0.3,3.2,1.4c1.4,1.7,2.9,3.4,4.3,5.1c0.8,0.9,2,1,2.8,0.1c1.8-2,3.6-4,5.4-6c0.6-0.7,2.7-1,3.4-0.4
			c0.4,0.3,0.7,0.9,0.8,1.4c0.1,0.8,0.1,1.6,0,2.4c0,0.6,0.1,0.8,0.7,0.9c3.9,0.8,7.9,1.5,11.8,2.4c5.7,1.4,9.5,4.9,10.9,10.6
			c3.3,13.1,6.5,26.2,9.7,39.3c0.2,0.9,0.4,1.6-0.5,2.2c-0.1,0.1-0.1,0.5-0.1,0.7c0.1,1,0.3,1.9,0.4,2.8c0.2,0.9-0.3,1.4-1.5,1.5
			c-1.4,0.1-2.8,0.5-4.1,1c-1,0.4-1.6,0.2-1.9-0.6c-0.4-1.2-0.9-2.4-1.3-3.6c-0.3,0-0.5,0.1-0.7,0.1c-1.1,0.2-1.4,0-1.8-1
			c-3.8-8.9-7.5-17.9-11.3-26.8c-0.4-0.8-0.7-1.7-1.3-2.5c0,0.8,0.1,1.6,0.1,2.5c0.4,7.2,0.8,14.4,1.1,21.6
			c0.2,4.6,0.5,9.2,0.8,13.9c0.2,4.5,0.5,8.9,0.7,13.4c0,0.8-0.3,1.3-0.9,1.7c-8.9,5.7-17.8,11.5-26.7,17.2
			c-7.1,4.6-14.2,9.1-21.3,13.7c-0.2,0.2-0.5,0.3-0.7,0.5c-1.2,0.6-2.3,0-2.2-1.4c0.1-2,0.4-4,0.6-6c0.6-5.7,1.2-11.4,1.9-17.1
			c0.9-8,1.7-16,2.6-24c0.7-6.2,1.3-12.5,2-18.7c0.6-5.7,1.2-11.4,1.9-17.2C1690.9-483.3,1690.9-483.3,1690.8-483.3z M1753.8-452.3
			c-0.5-0.4-0.8-0.7-1-0.7c-0.3,0-0.7,0.4-0.7,0.6c0,0.2,0.4,0.6,0.6,0.7C1753-451.7,1753.3-452,1753.8-452.3z M1670.2-453.4
			c-0.4,0.5-0.8,0.7-0.8,1c0,0.3,0.4,0.7,0.6,0.7c0.2,0,0.7-0.4,0.7-0.6C1670.8-452.6,1670.5-452.9,1670.2-453.4z"/>
		<path class="st1" d="M1588.8-466.2c-0.3,0.2-0.5,0.4-0.6,0.4c-0.2,0-0.4-0.3-0.4-0.4c0-0.1,0.3-0.4,0.4-0.4
			C1588.4-466.6,1588.5-466.4,1588.8-466.2z"/>
	</g>
	<g>
		<path d="M1714.1-521.5c0.6-0.7,2.7-1,3.4-0.4c0.4,0.3,0.7,0.9,0.8,1.4c0.1,0.8,0.1,1.6,0,2.4c0,0.6,0.1,0.8,0.7,0.9
			c3.9,0.8,7.9,1.5,11.8,2.4c5.7,1.4,9.5,4.9,10.9,10.6c3.3,13.1,6.5,26.2,9.7,39.3c0.2,0.9,0.4,1.6-0.5,2.2
			c-0.1,0.1-0.1,0.5-0.1,0.7c0.1,1,0.3,1.9,0.4,2.8c0.2,0.9-0.3,1.4-1.5,1.5c-1.4,0.1-2.8,0.5-4.1,1c-1,0.4-1.6,0.2-1.9-0.6
			c-0.4-1.2-0.9-2.4-1.3-3.6c-0.3,0-0.5,0.1-0.7,0.1c-1.1,0.2-1.4,0-1.8-1c-3.8-8.9-7.5-17.9-11.3-26.8c-0.4-0.8-0.7-1.7-1.3-2.5
			c0,0.8,0.1,1.6,0.1,2.5c0.4,7.2,0.8,14.4,1.1,21.6c0.2,4.6,0.5,9.2,0.8,13.9c0.2,4.5,0.5,8.9,0.7,13.4c0,0.8-0.3,1.3-0.9,1.7
			c-8.9,5.7-17.8,11.5-26.7,17.2c-7.1,4.6-14.2,9.1-21.3,13.7c-0.2,0.2-0.5,0.3-0.7,0.5c-1.2,0.6-2.3,0-2.2-1.4c0.1-2,0.4-4,0.6-6
			c0.6-5.7,1.2-11.4,1.9-17.1c0.9-8,1.7-16,2.6-24c0.7-6.2,1.3-12.5,2-18.7c0.6-5.7,1.2-11.4,1.9-17.2c-0.1,0-0.1,0-0.2,0
			c-1,2.5-2.1,5-3.1,7.5c-3.1,7.3-6.2,14.7-9.3,22c-0.4,0.9-1.1,1.1-2,0.8c-0.4,1.1-0.8,2.2-1.2,3.3c-0.5,1.3-0.7,1.5-2.1,1.1
			c-1.5-0.4-2.9-0.7-4.4-1.1c-1.1-0.3-1.3-0.6-1.1-1.8c0.2-1.1,0.3-2.2,0.5-3.2c-1.5-0.7-1.6-0.9-1.2-2.4
			c3.2-13.1,6.4-26.3,9.7-39.3c1.5-6,5.5-9.5,11.5-10.8c4.1-0.9,8.1-1.7,12.3-2.5c0-1,0-2,0-3.1c0-1.1,0.5-1.5,1.6-1.6
			 M1750.1-460.1c-0.5-0.4-0.8-0.7-1-0.7c-0.3,0-0.7,0.4-0.7,0.6c0,0.2,0.4,0.6,0.6,0.7C1749.2-459.5,1749.5-459.8,1750.1-460.1z
			 M1666.4-461.2c-0.4,0.5-0.8,0.7-0.8,1c0,0.3,0.4,0.7,0.6,0.7c0.2,0,0.7-0.4,0.7-0.6C1667-460.4,1666.7-460.7,1666.4-461.2z"/>
		<path class="st1" d="M1585.1-473.9c-0.3,0.2-0.5,0.4-0.6,0.4c-0.2,0-0.4-0.3-0.4-0.4c0-0.1,0.3-0.4,0.4-0.4
			C1584.6-474.4,1584.8-474.2,1585.1-473.9z"/>
	</g>
</g>
</svg>
