<?xml version="1.0" encoding="utf-8"?>
<!-- Generator: Adobe Illustrator 19.0.0, SVG Export Plug-In . SVG Version: 6.00 Build 0)  -->
<svg version="1.1" id="Layer_1" xmlns="http://www.w3.org/2000/svg" xmlns:xlink="http://www.w3.org/1999/xlink" x="0px" y="0px"
	 viewBox="382 157.9 632.1 669.1" style="enable-background:new 382 157.9 632.1 669.1;" xml:space="preserve">
<g id="XMLID_56_">
	<path id="XMLID_71_" d="M574.9,349c-3.1,14-5.7,27.2-8.9,40.2c-8.1,32.8-16.6,65.5-24.7,98.3c-2.2,9-3.5,18.3-6.1,27.1
		c-2.4,8.1-5.4,16.2-14.7,19.4c-1.3,0.4-2.3,2.8-2.6,4.5c-2,9.5-3.8,19-5.7,28.9c-18-3.7-35.6-7.4-54.2-11.3
		c2.3-7.5,4.4-15.1,7.1-22.6c1.4-3.9,1.4-6.2-2.5-8.8c-6.8-4.6-6.5-11.6,1.7-17.7c10.3-7.6,15.8-18,19.9-29.4
		c13.1-35.9,26.3-71.8,38.9-107.8c10.7-30.7,21-61.5,30.5-92.6c5.7-18.7,16.8-31.7,34.9-38.1c20.9-7.3,42.1-13.8,63.3-20.1
		c4.2-1.3,5.7-2.7,6.2-7.1c1.1-11.1,2.9-22.1,4.5-33.9c5.9,2.9,11.3,5.4,16.3,8.2c1.4,0.8,2.5,2.7,3.2,4.4c1.4,3.3,2.4,6.7,3.6,10.1
		c3.4,9.4,5.8,10.9,15.7,9c1.4-0.3,2.9-1.5,3.8-2.7c2.1-2.9,3.8-6.1,5.6-9.2c9.7-16.4,9.7-16.4,30-19.4c0.6,10.1,1.6,20.1,1.8,30.1
		c0.1,5.6,1.8,8,7.8,8.5c30.2,2.7,57.7,13.9,84.5,27.2c2.4,1.2,4.4,3.8,6,6.2c28.8,44.7,47.3,93.7,59.1,145.4
		c6.7,29.2,12.6,58.6,19.2,87.9c0.8,3.6,2.9,7.6,5.7,10.1c15.9,14.1,18,35.1,4.2,51.4c-2.7,3.2-2.8,5.4-1.2,8.9
		c3.6,7.8,6.9,15.8,10.9,25c-22.5,0-44.1,0-66.3,0c-0.4-1.6-1-4-1.5-6.5c-2-9.8-3.7-19.1-11.6-27.1c-9.2-9.2-8.8-21.2-3.5-33.1
		c1.8-3.9,2.8-8.8,2.4-13.1C852.8,441,838,385,815.7,331c-0.4-1-1-1.8-2.1-3.9c-1.6,2.9-3.1,5-4.1,7.3
		c-10.6,24.4-18.7,49.2-19.1,76.2c-0.6,40.4-2.3,80.7-3.1,121c-0.3,17.5-0.4,35.2,1.2,52.6c1.1,12.1,5.8,23.8,7.6,35.9
		c5.7,38.4,11.3,76.9,16,115.4c2.6,21.2,3.2,42.6,4.8,63.8c0.3,4.1-0.8,6-5.2,6.6c-48.9,6.6-98,10.4-147.3,8.5
		c-38.3-1.5-76.2-5.7-113.1-16.8c-6.7-2-8.8-4.7-7.9-11.8c8.3-64.9,21.3-128.7,40.6-191.2c3.3-10.7,4.1-22.4,4.6-33.6
		c1.3-28.1,2.4-56.2,2.4-84.3c0-30-1.1-60-2.1-90c-0.4-12-4.2-23.2-10.6-33.5C577.5,352,576.4,350.9,574.9,349z"/>
</g>
</svg>
