<?xml version="1.0" encoding="utf-8"?>
<!-- Generator: Adobe Illustrator 19.0.0, SVG Export Plug-In . SVG Version: 6.00 Build 0)  -->
<svg version="1.1" id="Layer_1" xmlns="http://www.w3.org/2000/svg" xmlns:xlink="http://www.w3.org/1999/xlink" x="0px" y="0px"
	 viewBox="-159.2 -521.3 1029.1 1146.1" style="enable-background:new -159.2 -521.3 1029.1 1146.1;" xml:space="preserve">
<style type="text/css">
	.st0{fill:#FFFFFF;}
	.st1{fill:#4C4C4C;}
</style>
<path d="M1670.8-116.5c1,0,2,0,3,0c6.1,12.1,14.8,22,25.2,30.6c16.9,13.9,36.2,20.5,58,16.6c28.4-5,47.1-23.1,60.8-47.2c1,0,2,0,3,0
	c1.5,0.6,2.9,1.5,4.5,1.8c14.7,3.7,29.4,7.3,44.1,11.1c16.6,4.3,33.5,7.5,49.6,13.3c23.3,8.3,43,22.3,56.8,43.5
	c23.7,36.4,47.3,72.8,70.9,109.2c3.5,5.4,7.1,10.6,10.9,16.3c-30.3,18.5-60.1,36.6-90.3,55.1c-17.5-26-34.6-51.6-51.8-77.1
	c-0.4,0.1-0.9,0.2-1.3,0.3c0,2.4,0,4.9,0,7.3c0,146.4,0,292.9,0,439.3c0,2-0.3,4-0.4,5.9c-112,0-224,0-336,0
	c-0.1-2.3-0.4-4.6-0.4-6.9c0-146.5,0-292.9,0-439.4c0-2.1,0-4.2,0-6.3c-0.4-0.1-0.8-0.2-1.2-0.3c-17.2,25.6-34.4,51.2-51.9,77.2
	c-30.3-18.6-60.2-36.8-90.3-55.1c1.9-3,3.5-5.5,5.1-8c24.9-38,50.1-75.7,74.5-114.1c15.8-24.9,38.1-40.9,65.6-49.1
	c27.1-8.1,54.8-13.9,82.3-20.8C1664.7-114.2,1667.7-115.4,1670.8-116.5z"/>
<g>
	<path d="M-1259.4-182c-6,14.2-12,28.5-17.9,42.7c-17.7,42-35.4,84.1-53,126.1c-2.2,5.2-6.1,6.2-11.5,4.5
		c-2.3,6.5-4.5,12.7-6.7,18.9c-2.7,7.6-4.1,8.3-11.8,6.5c-8.4-2-16.8-3.9-25.2-6c-6.3-1.6-7.5-3.6-6.5-10.1c1-6.2,1.9-12.5,2.9-18.6
		c-8.4-4-8.9-5-6.7-14c18.5-75.1,36.7-150.4,55.7-225.3c8.7-34.2,31.7-54.6,66.1-61.9c23.3-5,46.6-9.5,70.5-14.4
		c0-5.9-0.1-11.7,0-17.5c0.1-6.3,3-8.5,9.3-9.2c8-0.9,13.5,2,18.4,8.1c8,10,16.5,19.6,24.7,29.4c4.4,5.3,11.2,5.5,15.8,0.4
		c10.2-11.4,20.4-22.9,30.8-34.1c3.7-4,15.2-5.7,19.4-2.5c2.3,1.7,3.9,5.3,4.3,8.2c0.7,4.4,0.4,9,0.1,13.5c-0.2,3.3,0.8,4.5,4.2,5.2
		c22.5,4.4,45.2,8.5,67.5,13.9c32.6,7.8,54.1,28.3,62.4,60.8c19,75,37.2,150.2,55.8,225.3c1.2,4.9,2.4,9.4-2.9,12.8
		c-0.8,0.5-0.7,2.7-0.6,4.1c0.7,5.4,1.5,10.9,2.4,16.3c0.9,5.4-2,8.2-8.6,8.6c-8.1,0.4-15.9,2.6-23.3,5.7c-5.5,2.3-9,1.1-10.7-3.6
		c-2.5-6.9-5-13.7-7.5-20.7c-1.6,0.2-2.8,0.3-4.1,0.5c-6.1,1-8,0-10.4-5.7c-21.6-51.2-43.1-102.5-64.7-153.7
		c-2-4.8-4.1-9.7-7.2-14.3c0.3,4.7,0.6,9.4,0.8,14.1c2.2,41.3,4.3,82.5,6.5,123.8c1.4,26.4,2.9,52.9,4.4,79.3
		c1.4,25.6,2.7,51.1,4.1,76.7c0.2,4.5-1.6,7.5-5.4,9.9c-51,32.8-101.9,65.6-152.8,98.5c-40.6,26.2-81.2,52.3-121.7,78.5
		c-1.4,0.9-2.8,1.8-4.2,2.6c-6.7,3.6-13.3-0.2-12.7-7.9c0.8-11.5,2.2-22.9,3.4-34.3c3.5-32.6,7.1-65.2,10.6-97.9
		c5-45.9,9.9-91.7,14.9-137.6c3.8-35.8,7.5-71.5,11.4-107.3c3.5-32.7,7.1-65.5,10.7-98.2C-1259-181.9-1258.8-181.8-1259.4-182z
		 M-898.3-4.7c-2.8-2.2-4.4-4.3-5.8-4.2c-1.5,0.1-3.8,2.3-3.9,3.7c-0.1,1.3,2.1,3.7,3.6,4C-903.1-1-901.3-2.9-898.3-4.7z
		 M-1377.4-11c-2.2,2.6-4.4,4.2-4.3,5.6c0.1,1.5,2.2,3.9,3.6,4.1c1.3,0.1,3.8-2.1,4.1-3.5C-1373.8-6.3-1375.7-8.1-1377.4-11z"/>
	<path class="st0" d="M-811.1-32.4c-3,1.8-4.8,3.7-6.2,3.4c-1.5-0.3-3.7-2.6-3.6-4c0.1-1.4,2.5-3.6,3.9-3.7
		C-815.5-36.7-814-34.5-811.1-32.4z"/>
</g>
<path class="st1" d="M74.2,575.4h521.3c10.6,0,19-8.9,18.3-19.5l-47.6-751.4l135.7,317.4c0,0,2.1,22.1,27.5,9.7l14.2,39.1
	c0,0-4.5,21.2,38.1,0.5c0,0,68.8-5.9,37.9-51.6c0,0,12.9-6.2,6.5-32S720.8-338.1,720.8-338.1s-4.9-124.6-245.3-141.1
	c0,0-26.5-0.1-61.8,33.5c-34.7,33-89.1,32.6-123-1.3c-21.5-21.5-48.7-36.4-80.8-29.8c0,0-219.8,10.8-232.8,139L-128.2,87.9
	c0,0-2,27.4,12.6,26.5c0,0-5.6,23.7-5.4,35.1c0.2,11.4,19.2,20.8,34,24.3c14.8,3.5,42.1,11,48.2-6.2s9.1-45.6,34.4-44.2L131.4-195
	L56,555.2C54.9,566,63.3,575.4,74.2,575.4z"/>
<path d="M-109.1,138.1c0.1,2.8,4.2,7.4,6.9,7.7c2.5,0.3,7.2-3.9,7.7-6.7"/>
<path d="M797.7,140c0.1,2.8,4.2,7.4,6.9,7.7c2.5,0.3,7.2-3.9,7.7-6.7"/>
</svg>
