<?xml version="1.0" encoding="utf-8"?>
<!-- Generator: Adobe Illustrator 19.0.0, SVG Export Plug-In . SVG Version: 6.00 Build 0)  -->
<svg version="1.1" id="Layer_1" xmlns="http://www.w3.org/2000/svg" xmlns:xlink="http://www.w3.org/1999/xlink" x="0px" y="0px"
	 viewBox="0 0 626 645" style="enable-background:new 0 0 626 645;" xml:space="preserve">
<path d="M238,9.5c1,0,2,0,3,0c6.1,12.1,14.8,22,25.2,30.6c16.9,13.9,36.2,20.5,58,16.6c28.4-5,47.1-23.1,60.8-47.2c1,0,2,0,3,0
	c1.5,0.6,2.9,1.5,4.5,1.8c14.7,3.7,29.4,7.3,44.1,11.1c16.6,4.3,33.5,7.5,49.6,13.3C509.4,44,529.2,58,543,79.2
	c23.7,36.4,47.3,72.8,70.9,109.2c3.5,5.4,7.1,10.6,10.9,16.3c-30.3,18.5-60.1,36.6-90.3,55.1c-17.5-26-34.6-51.6-51.8-77.1
	c-0.4,0.1-0.9,0.2-1.3,0.3c0,2.4,0,4.9,0,7.3c0,146.4,0,292.9,0,439.3c0,2-0.3,4-0.4,5.9c-112,0-224,0-336,0
	c-0.1-2.3-0.4-4.6-0.4-6.9c0-146.5,0-292.9,0-439.4c0-2.1,0-4.2,0-6.3c-0.4-0.1-0.8-0.2-1.2-0.3c-17.2,25.6-34.4,51.2-51.9,77.2
	C61.2,241.2,31.3,223,1.2,204.7c1.9-3,3.5-5.5,5.1-8c24.9-38,50.1-75.7,74.5-114.1c15.8-24.9,38.1-40.9,65.6-49.1
	c27.1-8.1,54.8-13.9,82.3-20.8C231.8,11.8,234.9,10.6,238,9.5z"/>
</svg>
